<?xml version="1.0" encoding="utf-8"?>
<!-- Generator: Adobe Illustrator 24.0.2, SVG Export Plug-In . SVG Version: 6.00 Build 0)  -->
<svg version="1.1" id="Layer_1" xmlns="http://www.w3.org/2000/svg" xmlns:xlink="http://www.w3.org/1999/xlink" x="0px" y="0px"
	 viewBox="0 0 489.1 279.7" style="enable-background:new 0 0 489.1 279.7;" xml:space="preserve">
<style type="text/css">
	.st0{fill:#FFFFFF;}
	.st1{fill:#F6921E;}
	.st2{fill:#0D5183;}
	.st3{fill:#EC2024;}
</style>
<g>
	<g>
		<g>
			<path class="st0" d="M10.7,244.5c4.5,0,9.2,0.7,13.3,4.7c3,2.9,4.9,6.8,4.9,12.1c0,5.3-1.8,9.2-4.6,11.9
				c-4.7,4.7-10.5,5.1-13.3,5.1H0v-33.7H10.7z M7.8,271.7h2.1c1.6,0,5.2-0.2,7.7-2.3c1.8-1.5,3.3-4.4,3.3-8.1c0-3.6-1.5-6-2.8-7.3
				c-2.5-2.5-5.8-2.9-8.2-2.9H7.8V271.7z"/>
			<path class="st0" d="M57.8,244.5v33.7H50v-33.7H57.8z"/>
			<path class="st0" d="M96.7,259.8h16.7v0.4c0,4.1-1.5,10.3-5.2,14.2c-3.7,3.9-8,4.6-12,4.6c-4,0-8.4-0.7-12.3-4.7
				c-2-2-5-6.1-5-12.8c0-5.5,2-9.9,4.9-12.8c4.1-4.3,9.3-4.9,13.3-4.9c2.8,0,6.3,0.5,9.5,2.5c2.3,1.5,4.2,3.9,5.5,6l-7,3.8
				c-0.7-1.3-1.7-2.7-3-3.6c-1.5-1.1-3.2-1.6-5.2-1.6c-3.1,0-5.4,1-7,2.7c-1.9,2-2.9,4.9-2.9,8c0,3.8,1.4,6.3,2.8,7.7
				c2,2,4.2,2.6,6.8,2.6c3.3,0,5.1-1.2,5.9-1.8c0.3-0.2,1.8-1.5,2.4-4h-8.1V259.8z"/>
			<path class="st0" d="M142.4,244.5v33.7h-7.8v-33.7H142.4z"/>
			<path class="st0" d="M176.9,251.1v27.2h-7.8v-27.2h-7.3v-6.6h22.5v6.6H176.9z"/>
			<path class="st0" d="M221.2,271.9h-12.7l-2.6,6.4h-8.1l13.6-33.7h7.1l13.3,33.7h-8.1L221.2,271.9z M219.1,265.9l-4.1-11.3
				l-4.2,11.3H219.1z"/>
			<path class="st0" d="M258.6,244.5v27.2H269v6.6h-18.3v-33.7H258.6z"/>
			<path class="st0" d="M288.1,278.2l5.6-35.6l12.9,28.5l13.2-28.5l5.3,35.7h-3.8l-3.2-23.5l-11.5,24.9l-11.3-24.9l-3.3,23.5H288.1z
				"/>
			<path class="st0" d="M365.6,248.1h-13.8v10h13.4v3.5h-13.4v13.1h13.8v3.5h-17.5v-33.7h17.5V248.1z"/>
			<path class="st0" d="M387.6,244.5h6.9c3.4,0,8.2,0.4,12.4,3.9c3.1,2.6,5.8,6.9,5.8,12.9c0,7.1-3.5,10.9-5.9,12.9
				c-3.1,2.6-6.3,3.9-12.3,3.9h-6.8V244.5z M391.4,274.7h3.3c2.7,0,6.4-0.3,9.7-3c2.5-2.1,4.6-5.5,4.6-10.3
				c0-8.1-5.7-13.4-14.2-13.4h-3.3V274.7z"/>
			<path class="st0" d="M438.5,244.5v33.7h-3.7v-33.7H438.5z"/>
			<path class="st0" d="M481,268.7h-14.4l-4,9.5h-4.1l15.5-35.4l15.1,35.4h-4.1L481,268.7z M479.5,265.2l-5.7-13.5l-5.8,13.5H479.5z
				"/>
		</g>
	</g>
	<g>
		<path id="Cute_11_" class="st1" d="M138.4,204.1c-17.8,0-31.4-4.9-40.8-14.8c-9.3-9.9-14-23.9-14-42c0-9,1.4-17.1,4.3-24.2
			c2.9-7.1,6.8-13.1,11.7-17.9c5-4.9,10.9-8.6,17.7-11.1c6.9-2.5,14.3-3.8,22.3-3.8c4.6,0,8.9,0.3,12.7,1c3.8,0.7,7.1,1.5,10,2.4
			c2.8,0.9,5.2,1.8,7.1,2.8c1.9,0.9,3.3,1.7,4.1,2.2l-7.1,19.8c-3.4-1.8-7.3-3.3-11.8-4.6c-4.5-1.3-9.6-1.9-15.3-1.9
			c-3.8,0-7.5,0.6-11.2,1.9c-3.6,1.3-6.9,3.3-9.7,6.1c-2.8,2.8-5,6.4-6.7,10.8c-1.7,4.4-2.5,9.8-2.5,16.1c0,5,0.6,9.7,1.7,14.1
			c1.1,4.4,2.9,8.1,5.4,11.3c2.5,3.1,5.7,5.6,9.7,7.5c4,1.8,8.9,2.8,14.6,2.8c3.6,0,6.8-0.2,9.7-0.6c2.9-0.4,5.4-0.9,7.6-1.5
			c2.2-0.6,4.2-1.2,5.9-2c1.7-0.7,3.2-1.4,4.6-2l6.8,19.7c-3.5,2.1-8.4,4-14.7,5.7C154.1,203.2,146.7,204.1,138.4,204.1z M253.3,199
			c-4,1.2-9.2,2.2-15.5,3.2c-6.3,1-13,1.5-19.9,1.5c-7.1,0-13-0.9-17.7-2.8c-4.7-1.9-8.4-4.5-11.2-7.9c-2.7-3.4-4.7-7.5-5.9-12.2
			c-1.2-4.7-1.7-9.9-1.7-15.6v-46.1H205v43.3c0,7.6,1,13,3,16.4c2,3.4,5.8,5,11.2,5c1.7,0,3.5-0.1,5.4-0.2c1.9-0.2,3.6-0.3,5.1-0.6
			v-63.9h23.6V199z M267.7,98.5l23.6-3.8v24.4h28.3v19.5h-28.3v29.1c0,4.9,0.9,8.9,2.6,11.8c1.7,2.9,5.2,4.4,10.5,4.4
			c2.5,0,5.1-0.2,7.8-0.7c2.7-0.5,5.1-1.1,7.4-2l3.3,18.3c-2.8,1.2-6,2.2-9.5,3c-3.5,0.8-7.8,1.3-12.8,1.3c-6.4,0-11.8-0.9-16-2.6
			c-4.2-1.7-7.6-4.1-10.1-7.2c-2.5-3.1-4.3-6.8-5.3-11.3c-1-4.4-1.5-9.3-1.5-14.6V98.5z M327.3,161.1c0-7.3,1.1-13.8,3.4-19.3
			c2.3-5.5,5.2-10.1,8.9-13.8c3.7-3.7,7.9-6.5,12.7-8.3c4.8-1.9,9.7-2.8,14.8-2.8c11.8,0,21.2,3.6,28,10.8
			c6.9,7.2,10.3,17.8,10.3,31.7c0,1.4-0.1,2.9-0.2,4.5c-0.1,1.6-0.2,3.1-0.3,4.3h-53.5c0.5,4.8,2.8,8.7,6.8,11.5
			c4,2.8,9.4,4.2,16.1,4.2c4.3,0,8.6-0.4,12.7-1.2c4.2-0.8,7.6-1.8,10.2-2.9l3.2,19c-1.3,0.6-3,1.3-5.1,1.9c-2.1,0.6-4.5,1.2-7,1.7
			c-2.6,0.5-5.4,0.9-8.3,1.2c-3,0.3-5.9,0.5-8.9,0.5c-7.5,0-14-1.1-19.6-3.3c-5.5-2.2-10.1-5.2-13.8-9c-3.6-3.8-6.3-8.4-8.1-13.6
			C328.1,172.9,327.3,167.2,327.3,161.1z M382.7,152.1c-0.1-2-0.4-3.9-1-5.8c-0.6-1.9-1.5-3.6-2.7-5c-1.2-1.5-2.7-2.7-4.6-3.6
			c-1.8-0.9-4.1-1.4-6.9-1.4c-2.6,0-4.9,0.4-6.8,1.3c-1.9,0.9-3.5,2.1-4.7,3.5c-1.3,1.5-2.2,3.2-2.9,5.1c-0.7,1.9-1.2,3.9-1.5,5.9
			H382.7z"/>
		<g>
			<path class="st2" d="M183.7,66.8c0-7.6,0-15.1,0-22.7c0-1.6,0-3.2,0-4.8c0.3-6,3-8.9,8.9-9c12.1-0.2,24.3-0.1,36.4,0
				c3.5,0,4.4,1.1,4.5,4.6c0.1,3.2,0.1,6.4,0.1,9.6c0,1.8-0.1,3.7,0.1,5.5c0.4,6.5,4.3,10.7,10.7,11.3c2.9,0.3,5.9,0.1,8.9,0.2
				c3.5,0.2,4.3,1,4.6,4.6c0.1,0.9,0.1,1.8,0.1,2.7c0,8,0,16,0,24c-0.1,8.9-2.6,11.5-11.5,11.5c-17.4,0.1-34.8,0-52.2,0.1
				c-0.7,0-1.4,0-2.1,0c-5.4-0.5-8.3-3.5-8.6-8.8c-0.1-3,0-5.9,0-8.9C183.7,80,183.7,73.4,183.7,66.8z"/>
			<path class="st3" d="M261.3,55.1c-5,0-10.1,0.1-15.1,0c-4.7-0.2-6.1-1.6-6.2-6.3c-0.1-10.3-0.1-20.6,0-30.8
				c0.1-4.2,1.3-5.5,5.3-5.6c5.5-0.2,11-0.2,16.4,0c3.4,0.1,4.2,1.1,4.5,4.7c0.1,1.6,0,3.2,0.3,4.8c0.5,3.4,2.3,5.3,5.8,5.7
				c2,0.2,4.1,0.1,6.2,0.3c3.2,0.3,4.2,1.1,4.3,4.1c0.2,5.9,0.2,11.9,0,17.8c-0.1,3.8-1.7,5.2-5.7,5.3
				C271.8,55.2,266.5,55.1,261.3,55.1C261.3,55.1,261.3,55.1,261.3,55.1z"/>
			<path class="st1" d="M282,24.6c-3,0-5.9,0.1-8.9,0c-2-0.1-3.6-1.4-3.6-3.5c-0.1-5.9-0.1-11.8,0.1-17.7c0.1-2,1.6-3.3,3.7-3.3
				c5.7-0.1,11.4-0.1,17.1,0c2.2,0.1,3.5,1.3,3.5,3.4c0.1,5.9,0.1,11.8,0,17.7c-0.1,2.1-1.4,3.2-3.6,3.3
				C287.4,24.8,284.7,24.7,282,24.6C282,24.6,282,24.6,282,24.6z"/>
		</g>
	</g>
</g>
</svg>
